<mxfile host="app.diagrams.net" modified="2023-03-14T20:46:08.716Z" agent="5.0 (Windows)" etag="xJBNJdiLo26biZeCLp__" version="21.0.6" type="github">
  <diagram name="Page-1" id="Nr79UpzdsVzAqVi6YnkG">
    <mxGraphModel dx="2000" dy="2020" grid="1" gridSize="10" guides="1" tooltips="1" connect="1" arrows="1" fold="1" page="1" pageScale="1" pageWidth="2000" pageHeight="400" math="0" shadow="0">
      <root>
        <mxCell id="0" />
        <mxCell id="1" parent="0" />
        <mxCell id="ov9PU5uzwGSOFfLKYfcK-93" value="" style="group;fontSize=34;strokeWidth=4;" vertex="1" connectable="0" parent="1">
          <mxGeometry x="560" y="-500" width="950" height="800" as="geometry" />
        </mxCell>
        <mxCell id="ov9PU5uzwGSOFfLKYfcK-67" value="" style="rounded=0;whiteSpace=wrap;html=1;fontFamily=Helvetica;fontSize=11;fillColor=none;strokeColor=#82b366;strokeWidth=4;" vertex="1" parent="ov9PU5uzwGSOFfLKYfcK-93">
          <mxGeometry y="109.0909090909091" width="298.03921568627453" height="109.0909090909091" as="geometry" />
        </mxCell>
        <mxCell id="ov9PU5uzwGSOFfLKYfcK-14" value="EnergyUnit" style="rounded=0;whiteSpace=wrap;html=1;fillColor=#d5e8d4;strokeColor=#82b366;fontColor=#006600;strokeWidth=4;fontStyle=1;fontSize=19;" vertex="1" parent="ov9PU5uzwGSOFfLKYfcK-93">
          <mxGeometry x="55.88235294117648" y="690.909090909091" width="223.5294117647059" height="109.0909090909091" as="geometry" />
        </mxCell>
        <mxCell id="ov9PU5uzwGSOFfLKYfcK-15" value="EnergySystemBuilder" style="rounded=0;whiteSpace=wrap;html=1;verticalAlign=top;fillColor=#d5e8d4;strokeColor=#82b366;fontColor=#006600;strokeWidth=4;fontSize=17;fontStyle=1" vertex="1" parent="ov9PU5uzwGSOFfLKYfcK-93">
          <mxGeometry x="55.88235294117648" y="436.3636363636364" width="223.5294117647059" height="181.8181818181818" as="geometry" />
        </mxCell>
        <mxCell id="ov9PU5uzwGSOFfLKYfcK-19" style="edgeStyle=orthogonalEdgeStyle;rounded=0;orthogonalLoop=1;jettySize=auto;html=1;entryX=0.5;entryY=1;entryDx=0;entryDy=0;fillColor=#d5e8d4;strokeColor=#82b366;fontColor=#006600;strokeWidth=4;endArrow=block;endFill=1;fontStyle=1" edge="1" parent="ov9PU5uzwGSOFfLKYfcK-93" source="ov9PU5uzwGSOFfLKYfcK-14" target="ov9PU5uzwGSOFfLKYfcK-15">
          <mxGeometry relative="1" as="geometry" />
        </mxCell>
        <mxCell id="ov9PU5uzwGSOFfLKYfcK-18" value="" style="rounded=0;whiteSpace=wrap;html=1;fillColor=#d5e8d4;strokeColor=#82b366;fontColor=#006600;strokeWidth=4;fontSize=11;fontStyle=1" vertex="1" parent="ov9PU5uzwGSOFfLKYfcK-93">
          <mxGeometry x="74.50980392156863" y="490.90909090909093" width="149.01960784313727" height="72.72727272727273" as="geometry" />
        </mxCell>
        <mxCell id="ov9PU5uzwGSOFfLKYfcK-25" value="&lt;div style=&quot;font-size: 19px;&quot;&gt;xarray.Dataset&lt;br style=&quot;font-size: 19px;&quot;&gt;&lt;/div&gt;&lt;div style=&quot;font-size: 19px;&quot;&gt;(unit dataset)&lt;/div&gt;" style="rounded=0;whiteSpace=wrap;html=1;align=center;verticalAlign=middle;fillColor=#d5e8d4;strokeColor=#82b366;fontColor=#006600;strokeWidth=4;fontStyle=1;fontSize=19;" vertex="1" parent="ov9PU5uzwGSOFfLKYfcK-93">
          <mxGeometry x="391.1764705882353" y="690.909090909091" width="223.5294117647059" height="109.0909090909091" as="geometry" />
        </mxCell>
        <mxCell id="ov9PU5uzwGSOFfLKYfcK-26" style="edgeStyle=orthogonalEdgeStyle;rounded=0;orthogonalLoop=1;jettySize=auto;html=1;dashed=1;fillColor=#d5e8d4;strokeColor=#82b366;fontColor=#006600;strokeWidth=4;endArrow=block;endFill=1;fontStyle=1" edge="1" parent="ov9PU5uzwGSOFfLKYfcK-93" source="ov9PU5uzwGSOFfLKYfcK-14" target="ov9PU5uzwGSOFfLKYfcK-25">
          <mxGeometry relative="1" as="geometry" />
        </mxCell>
        <mxCell id="ov9PU5uzwGSOFfLKYfcK-30" value="" style="rounded=0;whiteSpace=wrap;html=1;fillColor=#d5e8d4;strokeColor=#82b366;fontColor=#006600;strokeWidth=4;fontStyle=1" vertex="1" parent="ov9PU5uzwGSOFfLKYfcK-93">
          <mxGeometry x="93.13725490196079" y="509.0909090909091" width="149.01960784313727" height="72.72727272727273" as="geometry" />
        </mxCell>
        <mxCell id="ov9PU5uzwGSOFfLKYfcK-31" value="EnergyUnit" style="rounded=0;whiteSpace=wrap;html=1;fillColor=#d5e8d4;strokeColor=#82b366;fontColor=#006600;strokeWidth=4;fontStyle=1;fontSize=19;" vertex="1" parent="ov9PU5uzwGSOFfLKYfcK-93">
          <mxGeometry x="111.76470588235296" y="527.2727272727274" width="149.01960784313727" height="72.72727272727273" as="geometry" />
        </mxCell>
        <mxCell id="ov9PU5uzwGSOFfLKYfcK-32" value="EnergySystem" style="rounded=0;whiteSpace=wrap;html=1;verticalAlign=top;fillColor=#d5e8d4;strokeColor=#82b366;fontColor=#006600;strokeWidth=4;fontSize=17;fontStyle=1" vertex="1" parent="ov9PU5uzwGSOFfLKYfcK-93">
          <mxGeometry x="391.1764705882353" y="436.3636363636364" width="223.5294117647059" height="181.8181818181818" as="geometry" />
        </mxCell>
        <mxCell id="ov9PU5uzwGSOFfLKYfcK-38" style="edgeStyle=orthogonalEdgeStyle;rounded=0;orthogonalLoop=1;jettySize=auto;html=1;entryX=0;entryY=0.5;entryDx=0;entryDy=0;dashed=1;fillColor=#d5e8d4;strokeColor=#82b366;fontColor=#006600;strokeWidth=4;endArrow=block;endFill=1;fontStyle=1" edge="1" parent="ov9PU5uzwGSOFfLKYfcK-93" source="ov9PU5uzwGSOFfLKYfcK-15" target="ov9PU5uzwGSOFfLKYfcK-32">
          <mxGeometry relative="1" as="geometry" />
        </mxCell>
        <mxCell id="ov9PU5uzwGSOFfLKYfcK-37" style="edgeStyle=orthogonalEdgeStyle;rounded=0;orthogonalLoop=1;jettySize=auto;html=1;entryX=0.5;entryY=1;entryDx=0;entryDy=0;fillColor=#d5e8d4;strokeColor=#82b366;fontColor=#006600;strokeWidth=4;endArrow=block;endFill=1;fontStyle=1" edge="1" parent="ov9PU5uzwGSOFfLKYfcK-93" source="ov9PU5uzwGSOFfLKYfcK-25" target="ov9PU5uzwGSOFfLKYfcK-32">
          <mxGeometry relative="1" as="geometry" />
        </mxCell>
        <mxCell id="ov9PU5uzwGSOFfLKYfcK-33" value="" style="rounded=0;whiteSpace=wrap;html=1;fillColor=#d5e8d4;strokeColor=#82b366;fontColor=#006600;strokeWidth=4;fontStyle=1" vertex="1" parent="ov9PU5uzwGSOFfLKYfcK-93">
          <mxGeometry x="409.80392156862746" y="490.90909090909093" width="149.01960784313727" height="72.72727272727273" as="geometry" />
        </mxCell>
        <mxCell id="ov9PU5uzwGSOFfLKYfcK-34" value="" style="rounded=0;whiteSpace=wrap;html=1;fillColor=#d5e8d4;strokeColor=#82b366;fontColor=#006600;strokeWidth=4;fontStyle=1" vertex="1" parent="ov9PU5uzwGSOFfLKYfcK-93">
          <mxGeometry x="428.4313725490196" y="509.0909090909091" width="149.01960784313727" height="72.72727272727273" as="geometry" />
        </mxCell>
        <mxCell id="ov9PU5uzwGSOFfLKYfcK-35" value="&lt;div style=&quot;font-size: 19px;&quot;&gt;xarray.Dataset&lt;/div&gt;&lt;div style=&quot;font-size: 19px;&quot;&gt;(unit dataset)&lt;br style=&quot;font-size: 19px;&quot;&gt;&lt;/div&gt;" style="rounded=0;whiteSpace=wrap;html=1;fillColor=#d5e8d4;strokeColor=#82b366;fontColor=#006600;strokeWidth=4;fontSize=19;fontStyle=1" vertex="1" parent="ov9PU5uzwGSOFfLKYfcK-93">
          <mxGeometry x="447.0588235294118" y="527.2727272727274" width="149.01960784313727" height="72.72727272727273" as="geometry" />
        </mxCell>
        <mxCell id="ov9PU5uzwGSOFfLKYfcK-41" value="&lt;font style=&quot;font-size: 15px;&quot;&gt;ProbabilisticSimulation&lt;/font&gt;" style="rounded=0;whiteSpace=wrap;html=1;verticalAlign=top;fillColor=#d5e8d4;strokeColor=#82b366;fontColor=#006600;strokeWidth=4;fontSize=15;fontStyle=1" vertex="1" parent="ov9PU5uzwGSOFfLKYfcK-93">
          <mxGeometry x="391.1764705882353" y="218.1818181818182" width="223.5294117647059" height="145.45454545454547" as="geometry" />
        </mxCell>
        <mxCell id="ov9PU5uzwGSOFfLKYfcK-44" style="edgeStyle=orthogonalEdgeStyle;shape=connector;rounded=0;orthogonalLoop=1;jettySize=auto;html=1;entryX=0.5;entryY=1;entryDx=0;entryDy=0;labelBackgroundColor=default;strokeColor=#82b366;strokeWidth=4;fontFamily=Helvetica;fontSize=11;fontColor=#006600;endArrow=block;endFill=1;fillColor=#d5e8d4;fontStyle=1" edge="1" parent="ov9PU5uzwGSOFfLKYfcK-93" source="ov9PU5uzwGSOFfLKYfcK-32" target="ov9PU5uzwGSOFfLKYfcK-41">
          <mxGeometry relative="1" as="geometry" />
        </mxCell>
        <mxCell id="ov9PU5uzwGSOFfLKYfcK-42" value="EnergySystem" style="rounded=0;whiteSpace=wrap;html=1;fillColor=#d5e8d4;strokeColor=#82b366;fontColor=#006600;strokeWidth=4;fontSize=19;fontStyle=1" vertex="1" parent="ov9PU5uzwGSOFfLKYfcK-93">
          <mxGeometry x="409.80392156862746" y="272.72727272727275" width="186.27450980392157" height="72.72727272727273" as="geometry" />
        </mxCell>
        <mxCell id="ov9PU5uzwGSOFfLKYfcK-45" value="ResourceAdequacyMetric" style="rounded=0;whiteSpace=wrap;html=1;verticalAlign=top;fillColor=#d5e8d4;strokeColor=#82b366;fontColor=#006600;strokeWidth=4;fontSize=15;fontStyle=1" vertex="1" parent="ov9PU5uzwGSOFfLKYfcK-93">
          <mxGeometry x="391.1764705882353" width="223.5294117647059" height="145.45454545454547" as="geometry" />
        </mxCell>
        <mxCell id="ov9PU5uzwGSOFfLKYfcK-49" style="edgeStyle=orthogonalEdgeStyle;shape=connector;rounded=0;orthogonalLoop=1;jettySize=auto;html=1;entryX=0.5;entryY=1;entryDx=0;entryDy=0;labelBackgroundColor=default;strokeColor=#82b366;strokeWidth=4;fontFamily=Helvetica;fontSize=11;fontColor=#006600;endArrow=block;endFill=1;fillColor=#d5e8d4;fontStyle=1" edge="1" parent="ov9PU5uzwGSOFfLKYfcK-93" source="ov9PU5uzwGSOFfLKYfcK-41" target="ov9PU5uzwGSOFfLKYfcK-45">
          <mxGeometry relative="1" as="geometry" />
        </mxCell>
        <mxCell id="ov9PU5uzwGSOFfLKYfcK-46" value="ProbabilisticSimulation" style="rounded=0;whiteSpace=wrap;html=1;fillColor=#d5e8d4;strokeColor=#82b366;fontColor=#006600;strokeWidth=4;fontSize=15;fontStyle=1" vertex="1" parent="ov9PU5uzwGSOFfLKYfcK-93">
          <mxGeometry x="409.80392156862746" y="54.54545454545455" width="186.27450980392157" height="72.72727272727273" as="geometry" />
        </mxCell>
        <mxCell id="ov9PU5uzwGSOFfLKYfcK-50" value="ResourceContribution" style="rounded=0;whiteSpace=wrap;html=1;verticalAlign=top;fillColor=#d5e8d4;strokeColor=#82b366;fontColor=#006600;strokeWidth=4;fontSize=17;fontStyle=1" vertex="1" parent="ov9PU5uzwGSOFfLKYfcK-93">
          <mxGeometry x="689.2156862745098" y="145.45454545454547" width="260.7843137254902" height="290.90909090909093" as="geometry" />
        </mxCell>
        <mxCell id="ov9PU5uzwGSOFfLKYfcK-56" style="edgeStyle=orthogonalEdgeStyle;shape=connector;rounded=0;orthogonalLoop=1;jettySize=auto;html=1;entryX=0;entryY=0.5;entryDx=0;entryDy=0;labelBackgroundColor=default;strokeColor=#82b366;strokeWidth=4;fontFamily=Helvetica;fontSize=11;fontColor=#006600;endArrow=block;endFill=1;fillColor=#d5e8d4;fontStyle=1" edge="1" parent="ov9PU5uzwGSOFfLKYfcK-93" source="ov9PU5uzwGSOFfLKYfcK-32" target="ov9PU5uzwGSOFfLKYfcK-50">
          <mxGeometry relative="1" as="geometry" />
        </mxCell>
        <mxCell id="ov9PU5uzwGSOFfLKYfcK-55" style="edgeStyle=orthogonalEdgeStyle;shape=connector;rounded=0;orthogonalLoop=1;jettySize=auto;html=1;entryX=0;entryY=0.5;entryDx=0;entryDy=0;labelBackgroundColor=default;strokeColor=#82b366;strokeWidth=4;fontFamily=Helvetica;fontSize=11;fontColor=#006600;endArrow=block;endFill=1;fillColor=#d5e8d4;fontStyle=1" edge="1" parent="ov9PU5uzwGSOFfLKYfcK-93" source="ov9PU5uzwGSOFfLKYfcK-41" target="ov9PU5uzwGSOFfLKYfcK-50">
          <mxGeometry relative="1" as="geometry" />
        </mxCell>
        <mxCell id="ov9PU5uzwGSOFfLKYfcK-57" style="edgeStyle=orthogonalEdgeStyle;shape=connector;rounded=0;orthogonalLoop=1;jettySize=auto;html=1;entryX=0;entryY=0.5;entryDx=0;entryDy=0;labelBackgroundColor=default;strokeColor=#82b366;strokeWidth=4;fontFamily=Helvetica;fontSize=11;fontColor=#006600;endArrow=block;endFill=1;fillColor=#d5e8d4;fontStyle=1" edge="1" parent="ov9PU5uzwGSOFfLKYfcK-93" source="ov9PU5uzwGSOFfLKYfcK-45" target="ov9PU5uzwGSOFfLKYfcK-50">
          <mxGeometry relative="1" as="geometry" />
        </mxCell>
        <mxCell id="ov9PU5uzwGSOFfLKYfcK-51" value="EnergySystem" style="rounded=0;whiteSpace=wrap;html=1;fillColor=#d5e8d4;strokeColor=#82b366;fontColor=#006600;strokeWidth=4;fontSize=15;fontStyle=1" vertex="1" parent="ov9PU5uzwGSOFfLKYfcK-93">
          <mxGeometry x="707.843137254902" y="200" width="223.5294117647059" height="72.72727272727273" as="geometry" />
        </mxCell>
        <mxCell id="ov9PU5uzwGSOFfLKYfcK-52" value="ProbablisitcSimulation" style="rounded=0;whiteSpace=wrap;html=1;fillColor=#d5e8d4;strokeColor=#82b366;fontColor=#006600;strokeWidth=4;fontSize=15;fontStyle=1" vertex="1" parent="ov9PU5uzwGSOFfLKYfcK-93">
          <mxGeometry x="707.843137254902" y="272.72727272727275" width="223.5294117647059" height="72.72727272727273" as="geometry" />
        </mxCell>
        <mxCell id="ov9PU5uzwGSOFfLKYfcK-53" value="ResourceAdequacyMetric" style="rounded=0;whiteSpace=wrap;html=1;fillColor=#d5e8d4;strokeColor=#82b366;fontColor=#006600;strokeWidth=4;fontSize=15;fontStyle=1" vertex="1" parent="ov9PU5uzwGSOFfLKYfcK-93">
          <mxGeometry x="707.843137254902" y="345.4545454545455" width="223.5294117647059" height="72.72727272727273" as="geometry" />
        </mxCell>
        <mxCell id="ov9PU5uzwGSOFfLKYfcK-62" style="edgeStyle=orthogonalEdgeStyle;rounded=0;orthogonalLoop=1;jettySize=auto;html=1;entryX=0;entryY=0.5;entryDx=0;entryDy=0;fillColor=#d5e8d4;strokeColor=#82b366;fontColor=#006600;strokeWidth=4;endArrow=block;endFill=1;fontStyle=1" edge="1" parent="ov9PU5uzwGSOFfLKYfcK-93">
          <mxGeometry relative="1" as="geometry">
            <mxPoint x="18.627450980392158" y="145.45454545454547" as="sourcePoint" />
            <mxPoint x="130.3921568627451" y="145.45454545454547" as="targetPoint" />
          </mxGeometry>
        </mxCell>
        <mxCell id="ov9PU5uzwGSOFfLKYfcK-63" style="edgeStyle=orthogonalEdgeStyle;rounded=0;orthogonalLoop=1;jettySize=auto;html=1;entryX=0;entryY=0.5;entryDx=0;entryDy=0;dashed=1;fillColor=#d5e8d4;strokeColor=#82b366;fontColor=#006600;strokeWidth=4;endArrow=block;endFill=1;fontStyle=1" edge="1" parent="ov9PU5uzwGSOFfLKYfcK-93">
          <mxGeometry relative="1" as="geometry">
            <mxPoint x="18.627450980392158" y="181.8181818181818" as="sourcePoint" />
            <mxPoint x="130.3921568627451" y="181.8181818181818" as="targetPoint" />
          </mxGeometry>
        </mxCell>
        <mxCell id="ov9PU5uzwGSOFfLKYfcK-64" value="Composition" style="text;html=1;strokeColor=none;fillColor=none;align=left;verticalAlign=middle;whiteSpace=wrap;rounded=0;fontSize=17;fontFamily=Helvetica;fontColor=#006600;fontStyle=1;strokeWidth=4;" vertex="1" parent="ov9PU5uzwGSOFfLKYfcK-93">
          <mxGeometry x="149.01960784313727" y="127.27272727272728" width="111.76470588235296" height="36.36363636363637" as="geometry" />
        </mxCell>
        <mxCell id="ov9PU5uzwGSOFfLKYfcK-65" value="Instantiation" style="text;html=1;strokeColor=none;fillColor=none;align=left;verticalAlign=middle;whiteSpace=wrap;rounded=0;fontSize=17;fontFamily=Helvetica;fontColor=#006600;fontStyle=1;strokeWidth=4;" vertex="1" parent="ov9PU5uzwGSOFfLKYfcK-93">
          <mxGeometry x="149.01960784313727" y="163.63636363636365" width="111.76470588235296" height="36.36363636363637" as="geometry" />
        </mxCell>
        <mxCell id="ov9PU5uzwGSOFfLKYfcK-70" value="&lt;b style=&quot;font-size: 29px;&quot;&gt;Class Interface&lt;br style=&quot;font-size: 29px;&quot;&gt;&lt;/b&gt;" style="text;html=1;strokeColor=none;fillColor=none;align=center;verticalAlign=middle;whiteSpace=wrap;rounded=0;fontSize=29;fontFamily=Helvetica;fontColor=#006600;strokeWidth=4;" vertex="1" parent="ov9PU5uzwGSOFfLKYfcK-93">
          <mxGeometry x="37.254901960784316" y="21.81818181818182" width="223.5294117647059" height="54.54545454545455" as="geometry" />
        </mxCell>
      </root>
    </mxGraphModel>
  </diagram>
</mxfile>
